<?xml version="1.0" encoding="utf-8"?>
<!-- Generator: Adobe Illustrator 22.0.1, SVG Export Plug-In . SVG Version: 6.00 Build 0)  -->
<svg version="1.1" id="Capa_1" xmlns="http://www.w3.org/2000/svg" xmlns:xlink="http://www.w3.org/1999/xlink" x="0px" y="0px"
	 viewBox="0 0 745 223" style="enable-background:new 0 0 745 223;" xml:space="preserve">
<style type="text/css">
	.st0{fill:#F4F4F4;}
</style>
<g>
	<path class="st0" d="M350.9,74c-4.6,0.1-9.5,2.1-11,5.5c-2.3,5.5,0.3,22.6-15.7,21.2c-8.4-0.7-10.2-11.1-8.3-22.4
		c0.1-0.5-0.9-1.8-1.5-1.9c-3.5-0.3-7.8,2.7-8.3,5.3c-1.4,6.3-5.1,20.8-18.3,18.1c-10-2.1-3.8-18.2-10.7-24.9
		c-11.8-2.1-20.2,2.8-28.5,5.3c5.3,22.6-30.4,30.7-35.6,11.6c10.6,0.6,23.8-0.4,24-11.6c0.3-12.6-18.3-15.8-29.3-8
		c-4.7,3.3-7.3,6.6-8.8,11.4l-9.4-0.4c-3.4-23.5-6.3-44.3-17.4-57.2c-24-28.2-114-23.2-137.7,0C18.9,41.2,16.2,68,17.5,97.1
		c1.9,42.5,11.9,89.5,24.9,119.2c5.1-0.8,8.9-4.7,8.9-4.7c-4.4-12.1-4-9-7.1-19.2c-10.2-33.9-19.2-77.7-16-121
		c3-41.1,27.5-51.2,68.5-54.2c21.8-1.6,51.5-0.1,64.9,12.4c11.9,11.1,16.7,31.6,16.9,53.1l-6.1-0.3c-1.5-4.7-2.3-13.9-3.7-17.3
		C155.2,30.3,78.7,26.6,54,51.8c-25.4,26-10.9,86.7,9.8,106.7c24.4,23.6,93.5,3.7,112-14.9c11.3-11.3,13.2-29.5,15.1-51.4
		c1,0,2,0,3.1,0h6.7c2.6,22,34.3,23.2,48,9.5c3.6-3.6,6.1-9.6,7-13.5s14.1-7.1,14.1-3.5c1.5,25.6,28.2,31.9,36.8,8
		c0.3,20.9,33.3,19.2,39.1,4.4c2.7,8.2,20.3,20,22.2,3.6C356.2,97.8,347.9,91.6,350.9,74z M229.1,77.6c-0.2,7.2-8.7,6.1-16,6.2
		C213.1,75.8,224.8,71.1,229.1,77.6z M112.6,130.9c-4.5,0-11.6-0.3-16-1.8c-20.8-7-21.4-42.6-7.1-55.1c12.4-10.8,44.8-10.1,51.2,6.9
		l-13.6-0.6c-16.7-1.2-33.1,1.6-31.3,19.5c2.8,28.1,62.3,27.4,57-9.1l11.9,0.3C168,120.9,138.6,131.1,112.6,130.9z M110,100.7
		c-1.3-8.4,4.6-10.5,12.4-10.8l0,0l20.6,0.6C148.5,112,112,114.4,110,100.7z M178.4,109.6c-1.5,10.8-4.9,20.8-10.7,26.7
		c-11.6,11.7-67.7,32.4-92.5,16.9c-23.9-15-34.4-81.6-6.2-99.6c29.4-18.7,93-8.7,94.2,28.4l-11.8-0.6c-0.1-0.2-0.3-0.4-0.4-0.6
		c-2.6-5.1-6.6-11.5-10.9-14.8c-26.4-20.3-66.7-2.5-70.2,24c-4,30.2,10.9,51.3,40,51.6c29.9,0.3,57.8-11.6,62.2-37.3
		c0.3-2,0.3-8.3,0.9-13l6.8,0.2C180.9,97.2,179,105.8,178.4,109.6z"/>
	<path class="st0" d="M333.7,47.3L323,57.1c0,0-2.4,4.7,5.3,4.7l14.5-10.1c0,0,3.7-0.7,0-4.4C342.9,47.3,337.9,43.1,333.7,47.3z"/>
</g>
<g>
	<path class="st0" d="M466.7,87.1c0,6.5-4.5,10.9-10.8,10.9c-3,0-5.7-1.2-7.4-3.5v11h-3.9v-29h3.7v3.4c1.7-2.4,4.5-3.6,7.6-3.6
		C462.1,76.3,466.7,80.6,466.7,87.1z M462.8,87.1c0-4.5-3.1-7.5-7.2-7.5c-4.1,0-7.1,3-7.1,7.5c0,4.5,3.1,7.5,7.1,7.5
		C459.7,94.6,462.8,91.7,462.8,87.1z"/>
	<path class="st0" d="M483.4,76.3V80c-0.3,0-0.6,0-0.9,0c-4.1,0-6.7,2.5-6.7,7.2v10.6H472V76.5h3.7v3.6
		C477.1,77.6,479.7,76.3,483.4,76.3z"/>
	<path class="st0" d="M486,87.1c0-6.3,4.7-10.8,11.1-10.8c6.4,0,11,4.5,11,10.8c0,6.3-4.7,10.9-11,10.9C490.7,98,486,93.5,486,87.1z
		 M504.2,87.1c0-4.5-3-7.5-7.1-7.5s-7.2,2.9-7.2,7.5c0,4.5,3.1,7.5,7.2,7.5S504.2,91.7,504.2,87.1z"/>
	<path class="st0" d="M533.5,68v29.8h-3.7v-3.4c-1.7,2.4-4.5,3.6-7.6,3.6c-6.2,0-10.8-4.4-10.8-10.9c0-6.5,4.5-10.8,10.8-10.8
		c3,0,5.7,1.1,7.4,3.4V68H533.5z M529.7,87.1c0-4.5-3.1-7.5-7.1-7.5c-4.1,0-7.2,2.9-7.2,7.5c0,4.5,3.1,7.5,7.2,7.5
		C526.6,94.6,529.7,91.7,529.7,87.1z"/>
	<path class="st0" d="M560.6,76.5v21.3H557v-3.2c-1.6,2.2-4.2,3.5-7.2,3.5c-5.5,0-9.1-3-9.1-9.3V76.5h3.9v11.8
		c0,4.2,2.1,6.3,5.7,6.3c4,0,6.6-2.5,6.6-7.1v-11H560.6z"/>
	<path class="st0" d="M566,87.1c0-6.3,4.7-10.8,11.2-10.8c3.8,0,7,1.6,8.7,4.5l-2.9,1.9c-1.4-2.1-3.4-3-5.8-3
		c-4.2,0-7.3,2.9-7.3,7.5c0,4.6,3.1,7.5,7.3,7.5c2.3,0,4.4-1,5.8-3l2.9,1.8c-1.7,3-4.9,4.6-8.7,4.6C570.7,98,566,93.5,566,87.1z"/>
	<path class="st0" d="M603.1,96.5c-1.2,1-2.9,1.5-4.7,1.5c-4.3,0-6.7-2.4-6.7-6.7V79.7h-3.6v-3.2h3.6v-4.7h3.9v4.7h6.1v3.2h-6.1
		v11.5c0,2.3,1.2,3.6,3.3,3.6c1.1,0,2.2-0.4,3-1L603.1,96.5z"/>
	<path class="st0" d="M605,87.1c0-6.3,4.7-10.8,11.1-10.8c6.4,0,11,4.5,11,10.8c0,6.3-4.7,10.9-11,10.9C609.7,98,605,93.5,605,87.1z
		 M623.3,87.1c0-4.5-3-7.5-7.1-7.5s-7.2,2.9-7.2,7.5c0,4.5,3.1,7.5,7.2,7.5S623.3,91.7,623.3,87.1z"/>
	<path class="st0" d="M451.6,117.8v28.1h-4v-24.6h-6.3v-3.5H451.6z"/>
	<path class="st0" d="M457.8,131.9c0-9.1,4.9-14.4,11.5-14.4c6.5,0,11.4,5.2,11.4,14.4c0,9.1-4.9,14.4-11.4,14.4
		C462.7,146.2,457.8,141,457.8,131.9z M476.7,131.9c0-7.2-3-10.8-7.4-10.8c-4.4,0-7.5,3.6-7.5,10.8s3,10.8,7.5,10.8
		C473.6,142.7,476.7,139,476.7,131.9z"/>
	<path class="st0" d="M484.5,131.9c0-9.1,4.9-14.4,11.5-14.4c6.5,0,11.4,5.2,11.4,14.4c0,9.1-4.9,14.4-11.4,14.4
		C489.4,146.2,484.5,141,484.5,131.9z M503.4,131.9c0-7.2-3-10.8-7.4-10.8c-4.4,0-7.5,3.6-7.5,10.8s3,10.8,7.5,10.8
		C500.4,142.7,503.4,139,503.4,131.9z"/>
	<path class="st0" d="M510.8,125.2c0-4.6,2.6-7.7,6.5-7.7c3.9,0,6.5,3,6.5,7.7s-2.6,7.7-6.5,7.7
		C513.5,132.9,510.8,129.8,510.8,125.2z M521.3,125.2c0-3.4-1.5-5.4-3.9-5.4c-2.4,0-3.9,2-3.9,5.4c0,3.3,1.5,5.4,3.9,5.4
		C519.8,130.6,521.3,128.6,521.3,125.2z M534.3,117.8h3.1l-19.2,28.1h-3.1L534.3,117.8z M528.6,138.5c0-4.6,2.6-7.7,6.5-7.7
		c3.9,0,6.5,3.1,6.5,7.7c0,4.6-2.6,7.7-6.5,7.7C531.2,146.1,528.6,143.1,528.6,138.5z M539.1,138.5c0-3.3-1.5-5.4-3.9-5.4
		c-2.4,0-3.9,2-3.9,5.4c0,3.4,1.5,5.4,3.9,5.4C537.5,143.9,539.1,141.8,539.1,138.5z"/>
	<path class="st0" d="M579.6,135.3c0,6.5-4.5,10.9-10.8,10.9c-3,0-5.7-1.2-7.4-3.4v11h-3.9v-29h3.7v3.4c1.7-2.4,4.5-3.6,7.6-3.6
		C575.1,124.4,579.6,128.8,579.6,135.3z M575.7,135.3c0-4.5-3.1-7.5-7.2-7.5c-4.1,0-7.1,3-7.1,7.5c0,4.5,3.1,7.5,7.1,7.5
		C572.6,142.8,575.7,139.8,575.7,135.3z"/>
	<path class="st0" d="M604.1,136.6h-17.2c0.5,3.7,3.5,6.2,7.7,6.2c2.5,0,4.6-0.8,6.1-2.6l2.1,2.5c-1.9,2.2-4.9,3.4-8.4,3.4
		c-6.9,0-11.4-4.5-11.4-10.9c0-6.3,4.5-10.8,10.7-10.8s10.5,4.4,10.5,11C604.2,135.7,604.1,136.2,604.1,136.6z M586.8,133.8h13.6
		c-0.4-3.6-3.1-6.1-6.8-6.1C590,127.7,587.2,130.2,586.8,133.8z"/>
	<path class="st0" d="M620.9,124.4v3.7c-0.3,0-0.6,0-0.9,0c-4.1,0-6.7,2.5-6.7,7.2v10.6h-3.9v-21.3h3.7v3.6
		C614.6,125.7,617.2,124.4,620.9,124.4z"/>
	<path class="st0" d="M645.8,124.6v21.3h-3.7v-3.2c-1.6,2.2-4.2,3.4-7.2,3.4c-5.5,0-9.1-3-9.1-9.3v-12.2h3.9v11.8
		c0,4.2,2.1,6.3,5.7,6.3c4,0,6.6-2.5,6.6-7.1v-11H645.8z"/>
	<path class="st0" d="M669.9,133.1v12.8h-3.7v-2.8c-1.3,1.9-3.7,3-7,3c-4.8,0-7.9-2.6-7.9-6.3c0-3.4,2.2-6.2,8.5-6.2h6.1v-0.8
		c0-3.2-1.9-5.1-5.7-5.1c-2.5,0-5.1,0.9-6.7,2.3l-1.6-2.9c2.2-1.8,5.4-2.7,8.8-2.7C666.7,124.4,669.9,127.3,669.9,133.1z
		 M666.1,139.4v-3h-5.9c-3.8,0-4.9,1.5-4.9,3.3c0,2.1,1.8,3.5,4.7,3.5C662.8,143.2,665.1,141.9,666.1,139.4z"/>
	<path class="st0" d="M697.3,133.7v12.2h-3.9v-11.8c0-4.2-2.1-6.2-5.7-6.2c-4.1,0-6.7,2.4-6.7,7.1v11h-3.9v-21.3h3.7v3.2
		c1.6-2.2,4.3-3.4,7.7-3.4C693.6,124.4,697.3,127.4,697.3,133.7z"/>
	<path class="st0" d="M702.5,135.3c0-6.3,4.7-10.8,11.1-10.8c6.4,0,11,4.5,11,10.8c0,6.3-4.7,10.9-11,10.9
		C707.2,146.1,702.5,141.6,702.5,135.3z M720.8,135.3c0-4.5-3-7.5-7.1-7.5s-7.2,2.9-7.2,7.5s3.1,7.5,7.2,7.5
		S720.8,139.8,720.8,135.3z"/>
</g>
</svg>
