<?xml version="1.0" encoding="utf-8"?>
<!-- Generator: Adobe Illustrator 22.0.1, SVG Export Plug-In . SVG Version: 6.00 Build 0)  -->
<svg version="1.1" id="Layer_1" focusable="false" xmlns="http://www.w3.org/2000/svg" xmlns:xlink="http://www.w3.org/1999/xlink"
	 x="0px" y="0px" viewBox="0 0 576 576" style="enable-background:new 0 0 576 576;" xml:space="preserve">
<style type="text/css">
	.st0{fill:#F4F4F4;}
</style>
<path class="st0" d="M499.8,328l41.7-183.4c3-13.2-7.1-25.9-20.6-25.9H174.4l-8.1-39.5c-2-9.9-10.7-16.9-20.7-16.9H55.2
	C43.5,62.2,34,71.7,34,83.4v14.1c0,11.7,9.5,21.2,21.2,21.2h61.6l62,302.9c-14.8,8.5-24.8,24.5-24.8,42.8
	c0,27.3,22.1,49.4,49.4,49.4s49.4-22.1,49.4-49.4c0-13.8-5.7-26.3-14.8-35.3h184.9c-9.2,9-14.8,21.5-14.8,35.3
	c0,27.3,22.1,49.4,49.4,49.4s49.4-22.1,49.4-49.4c0-19.6-11.4-36.5-27.9-44.5l4.9-21.4c3-13.2-7.1-25.9-20.6-25.9H226.4l-5.8-28.2
	h258.5C489,344.4,497.6,337.6,499.8,328z"/>
</svg>
