<?xml version="1.0" encoding="utf-8"?>
<!-- Generator: Adobe Illustrator 22.0.1, SVG Export Plug-In . SVG Version: 6.00 Build 0)  -->
<svg version="1.1" id="Layer_1" xmlns="http://www.w3.org/2000/svg" xmlns:xlink="http://www.w3.org/1999/xlink" x="0px" y="0px"
	 viewBox="0 0 306 93.3" style="enable-background:new 0 0 306 93.3;" xml:space="preserve">
<style type="text/css">
	.st0{fill:#F4F4F4;}
</style>
<g>
	<g>
		<path class="st0" d="M79.7,48.9L79.7,48.9l1,0v-32h-1l0,0v0c-10.8,0-20.9,2.8-29.7,7.6v-5.8v-1v-1H18v1h0v60.9h0v0h0v1h32v-1
			C50,62.2,63.3,48.9,79.7,48.9z M42.5,77.6c0.2-7.7,2.8-14.9,7-20.8v20.8H42.5z M78.7,32.7C67.8,32.9,57.8,37,50,43.6v-8.3
			c8.2-5.6,18-9,28.6-9.2V32.7z M49.5,44c-2.7,2.3-5,4.9-7.1,7.8V41.7c2.2-2.2,4.6-4.2,7.1-6V44z M41.6,52.9
			c-3.2,4.8-5.6,10.2-6.8,16V51.4c2-3.2,4.3-6.2,6.8-8.9V52.9z M42.4,39.9v-8.4c2.2-1.8,4.6-3.4,7.1-4.8v7.5
			C47,35.8,44.6,37.8,42.4,39.9z M41.6,40.6c-2.6,2.6-4.8,5.4-6.8,8.4V38.7c2.1-2.4,4.4-4.6,6.8-6.6V40.6z M33.8,50.6
			c-3,5-5.3,10.5-6.6,16.3V49.4c1.9-3.4,4.1-6.6,6.6-9.5V50.6z M34.8,36.4V18.7h6.8v11.4C39.2,32,36.9,34.1,34.8,36.4z M33.8,37.5
			c-2.4,2.7-4.6,5.7-6.6,8.8V18.7h6.6V37.5z M25.9,48.5c-2.8,5.1-5,10.6-6.3,16.4V18.7h6.3V48.5z M25.9,51.8v25.8h-6.3
			C19.7,68.3,22,59.6,25.9,51.8z M33.8,53.2v24.4h-6.6C27.4,68.7,29.7,60.4,33.8,53.2z M41.6,54.8v22.7h-6.8
			C35,69.2,37.5,61.5,41.6,54.8z M42.4,70.9V53.6c2-3,4.4-5.8,7.1-8.2v10.1C46.1,60,43.6,65.2,42.4,70.9z M50,45
			c7.7-6.8,17.7-11,28.6-11.2v6.9C67.1,40.9,56.8,46.4,50,54.8V45z M78.7,18.5v6.3C68.1,25,58.3,28.3,50,33.8v-7.4
			C58.5,21.5,68.3,18.7,78.7,18.5z M49.5,24.9c-2.5,1.4-4.8,3-7.1,4.7V18.7h7.1V24.9z M50,73.2V56.1c6.6-8.7,17-14.4,28.6-14.8v7.1
			C64.3,49,52.5,59.4,50,73.2z"/>
		<path class="st0" d="M79.7,55.4c-12.8,0-23.2,10.4-23.2,23.2v1h24.3V55.4H79.7z"/>
	</g>
	<g>
		<path class="st0" d="M180.6,32.3l-9,23l-9-23c-0.1-0.3-0.4-0.5-0.6-0.5h-5.2l12.9,31.3c0.1,0.3,0.4,0.4,0.6,0.4h2.6
			c0.3,0,0.5-0.2,0.6-0.4l13-31.3h-5.2C181,31.8,180.7,32.1,180.6,32.3z M183.8,33.6l-0.1,0.2l-11.6,27.9H171l0-0.1l-11.5-28h1.7
			l0,0.1l10.4,26.6l10.4-26.7H183.8z"/>
		<polygon class="st0" points="161,33.9 159.9,33.9 171.2,61.5 172,61.5 183.4,33.9 182.3,33.9 171.6,61.1 		"/>
		<path class="st0" d="M181.3,29.6c-1.2,0-2.3,0.8-2.8,1.9l-6.9,17.7l-6.9-17.7c-0.5-1.1-1.5-1.9-2.7-1.9h-8.6L167.6,64
			c0.4,1.1,1.5,1.8,2.7,1.8h2.6c1.2,0,2.3-0.7,2.7-1.8l14.3-34.4H181.3z M174.1,63.4c-0.2,0.5-0.7,0.8-1.2,0.8h-2.6
			c-0.5,0-1-0.3-1.2-0.8l-13.2-32.1h6.1c0.5,0,1,0.4,1.2,0.9l8.5,21.6l8.5-21.6c0.2-0.5,0.7-0.9,1.2-0.9h6.1l-0.3,0.6L174.1,63.4z"
			/>
		<g>
			<path class="st0" d="M142.4,34h-8.6c-1.7,0-7.1,0.5-7.1,6.8v13.5c0,3.9,3.2,7.1,7.1,7.1h14.3v-0.8h-14.3c-3.3,0-6-2.7-6-6v-4.9
				c0-0.4,0.2-0.9,0.5-1.2c0.3-0.3,0.7-0.5,1.2-0.5c0,0,0,0,0,0l18.7,0c0.7,0,1.4-0.6,1.4-1.4v-5.9C149.5,36.6,146.9,34,142.4,34z
				 M148.5,44.4c0,1.4-1.1,2.5-2.5,2.5h-16.5c-0.9,0-1.6-0.7-1.6-1.6v-4.6c0-3.3,2.7-6,6-6h8.8c3.8,0,5.9,2.2,5.9,6V44.4z"/>
			<path class="st0" d="M142.6,35h-8.8c-3.2,0-5.7,2.6-5.7,5.7v4.6c0,0.7,0.6,1.4,1.4,1.4H146c1.2,0,2.3-1,2.3-2.3v-3.7
				C148.3,37.1,146.2,35,142.6,35z M146.5,44.2c0,0.5-0.4,0.8-0.8,0.8h-14.9c-0.5-0.1-0.8-0.4-0.8-0.8v-3.4c0-2.4,1.5-3.9,3.9-3.9
				h8.8c2.6,0,3.8,1.3,3.8,3.9V44.2z"/>
			<path class="st0" d="M145.6,44.5c0.1,0,0.3-0.1,0.3-0.3v-3.4c0-2.3-1-3.3-3.3-3.3h-8.8c-2.1,0-3.3,1.2-3.3,3.3v3.4
				c0,0.1,0,0.2,0.3,0.3L145.6,44.5z M132.2,40.8c0-0.8,0.2-1.7,1.7-1.7h8.8c1.3,0,1.6,0.2,1.6,1.7v2.1h-12V40.8z"/>
			<path class="st0" d="M142.4,29.7h-8.6c-6.8,0-11.4,4.5-11.4,11.2v13.5c0,6.3,5.1,11.4,11.4,11.4h18.6v-6.7c0-1.5-1.3-2.8-2.8-2.8
				h-15.8c-1,0-1.7-0.7-1.7-1.7v-2.4c0.1,0,0.3,0,0.4,0h17.5c1.4,0,3.8-0.5,3.8-4.1v-7.3C153.8,34.2,149.2,29.7,142.4,29.7z
				 M152.2,48.2c0,0.8,0,2.4-2.1,2.4h-19.6v4c0,1.9,1.5,3.3,3.3,3.3h15.8c0.6,0,1.1,0.5,1.1,1.1v5h-17c-5.4,0-9.8-4.4-9.8-9.8V40.8
				c0-5.8,3.8-9.5,9.8-9.5h8.6c5.9,0,9.8,3.7,9.8,9.5V48.2z"/>
			<path class="st0" d="M142.4,31.9h-8.6c-5.6,0-9.2,3.5-9.2,8.9v13.5c0,5.1,4.1,9.2,9.2,9.2h16.4v-4.5c0-0.3-0.3-0.6-0.6-0.6h-15.8
				c-2.2,0-3.9-1.7-3.9-3.9V50h20.1c1.4,0,1.5-0.8,1.5-1.8v-7.3C151.6,35.4,148,31.9,142.4,31.9z M149.8,46.7c0,0.9-0.7,1.6-1.6,1.6
				l-18.7,0c0,0,0,0,0,0c-0.4,0-0.7,0.1-1,0.4c-0.3,0.3-0.4,0.6-0.4,1v4.9c0,3.2,2.6,5.7,5.7,5.7h14.6v1.4h-14.6
				c-4.1,0-7.4-3.3-7.4-7.4V40.8c0-6.6,5.6-7.1,7.4-7.1h8.6c4.6,0,7.4,2.7,7.4,7.1V46.7z"/>
		</g>
		<g>
			<path class="st0" d="M209.6,34H201c-1.7,0-7.1,0.5-7.1,6.8v13.5c0,3.9,3.2,7.1,7.1,7.1h14.3v-0.8H201c-3.3,0-6-2.7-6-6v-4.9
				c0-0.4,0.2-0.9,0.5-1.2c0.3-0.3,0.7-0.5,1.2-0.5c0,0,0,0,0,0l18.7,0c0.7,0,1.4-0.6,1.4-1.4v-5.9C216.7,36.6,214,34,209.6,34z
				 M215.7,44.4c0,1.4-1.1,2.5-2.5,2.5h-16.5c-0.9,0-1.6-0.7-1.6-1.6v-4.6c0-3.3,2.7-6,6-6h8.8c3.8,0,5.9,2.2,5.9,6V44.4z"/>
			<path class="st0" d="M209.8,35H201c-3.2,0-5.7,2.6-5.7,5.7v4.6c0,0.7,0.6,1.4,1.4,1.4h16.5c1.2,0,2.3-1,2.3-2.3v-3.7
				C215.4,37.1,213.4,35,209.8,35z M213.6,44.2c0,0.5-0.4,0.8-0.8,0.8h-14.9c-0.5-0.1-0.8-0.4-0.8-0.8v-3.4c0-2.4,1.5-3.9,3.9-3.9
				h8.8c2.6,0,3.8,1.3,3.8,3.9V44.2z"/>
			<path class="st0" d="M212.8,44.5c0.1,0,0.3-0.1,0.3-0.3v-3.4c0-2.3-1-3.3-3.3-3.3H201c-2.1,0-3.3,1.2-3.3,3.3v3.4
				c0,0.1,0,0.2,0.3,0.3L212.8,44.5z M199.4,40.8c0-0.8,0.2-1.7,1.7-1.7h8.8c1.3,0,1.6,0.2,1.6,1.7v2.1h-12V40.8z"/>
			<path class="st0" d="M209.6,29.7H201c-6.8,0-11.4,4.5-11.4,11.2v13.5c0,6.3,5.1,11.4,11.4,11.4h18.6v-6.7c0-1.5-1.3-2.8-2.8-2.8
				H201c-1,0-1.7-0.7-1.7-1.7v-2.4c0.1,0,0.3,0,0.4,0h17.5c1.4,0,3.8-0.5,3.8-4.1v-7.3C221,34.2,216.4,29.7,209.6,29.7z M219.4,48.2
				c0,0.8,0,2.4-2.1,2.4h-19.6v4c0,1.9,1.5,3.3,3.3,3.3h15.8c0.6,0,1.1,0.5,1.1,1.1v5h-17c-5.4,0-9.8-4.4-9.8-9.8V40.8
				c0-5.8,3.8-9.5,9.8-9.5h8.6c5.9,0,9.8,3.7,9.8,9.5V48.2z"/>
			<path class="st0" d="M209.6,31.9H201c-5.6,0-9.2,3.5-9.2,8.9v13.5c0,5.1,4.1,9.2,9.2,9.2h16.4v-4.5c0-0.3-0.3-0.6-0.6-0.6H201
				c-2.2,0-3.9-1.7-3.9-3.9V50h20.1c1.4,0,1.5-0.8,1.5-1.8v-7.3C218.8,35.4,215.2,31.9,209.6,31.9z M217,46.7c0,0.9-0.7,1.6-1.6,1.6
				l-18.7,0c0,0,0,0,0,0c-0.4,0-0.7,0.1-1,0.4c-0.3,0.3-0.4,0.6-0.4,1v4.9c0,3.2,2.6,5.7,5.7,5.7h14.6v1.4H201
				c-4.1,0-7.4-3.3-7.4-7.4V40.8c0-6.6,5.6-7.1,7.4-7.1h8.6c4.6,0,7.4,2.7,7.4,7.1V46.7z"/>
		</g>
		<path class="st0" d="M242.7,34h-11.2v0.8h11.2c3.3,0,6.1,2.3,6.1,4.9v5.6H235c-3.9,0-7.1,3.2-7.1,7.1v2c0,3.9,3.2,7.1,7.1,7.1
			h14.8l-0.1-20.8C249.8,35.8,246.1,34,242.7,34z M248.8,47.4v10.2c0,1.6-1.3,2.9-2.9,2.9H235c-3.4,0-6-2.6-6-6v-2.4
			c0-3.4,2.6-6,6-6h13.8L248.8,47.4z"/>
		<path class="st0" d="M231.7,52.1v2.4c0,1.9,1.5,3.3,3.3,3.3h10.9c0.2,0,0.2-0.3,0.2-0.3v-8.8H235
			C233.2,48.8,231.7,50.3,231.7,52.1z M233.4,52.1c0-1,0.7-1.7,1.7-1.7l9.4,0v5.7H235c-1,0-1.7-0.7-1.7-1.7V52.1z"/>
		<path class="st0" d="M229.3,52.1v2.4c0,3.2,2.5,5.7,5.7,5.7h10.9c1.5,0,2.6-1.2,2.6-2.7V47.4l0-1H235
			C231.8,46.4,229.3,48.9,229.3,52.1z M246.7,57.6c0,0.5-0.3,0.8-0.8,0.8H235c-2.2,0-3.9-1.7-3.9-3.9v-2.4c0-2.2,1.7-3.9,3.9-3.9
			h11.6V57.6z"/>
		<path class="st0" d="M242.7,31.9h-13.3v4.4c0,0.3,0.3,0.6,0.6,0.6h12.7c2.7,0,4,2,4,3.9v1.6c0,0.5-0.4,0.8-0.8,0.8H235
			c-5.1,0-9.2,4.1-9.2,9.2v2c0,5.1,4.1,9.2,9.2,9.2H250c1.1,0,1.9-0.8,1.9-1.9v-21C251.9,35.4,248.3,31.9,242.7,31.9z M250.1,61.7
			H235c-4.1,0-7.4-3.3-7.4-7.4v-2c0-4.1,3.3-7.4,7.4-7.4h13.5v-5.3c0-2.5-2.7-4.7-5.8-4.7h-11.5v-1.3h11.5c3.6,0,7.4,1.8,7.4,7
			L250.1,61.7z"/>
		<path class="st0" d="M242.7,29.7h-15.5v6.6c0,1.5,1.3,2.8,2.8,2.8h12.7c1.4,0,1.7,0.9,1.7,1.7V41H235c-6.3,0-11.4,5.1-11.4,11.4v2
			c0,6.3,5.1,11.4,11.4,11.4H250c2.3,0,4.1-1.8,4.1-4.1v-21C254.1,34.1,249.5,29.7,242.7,29.7z M252.5,61.7c0,1.4-1.1,2.5-2.5,2.5
			H235c-5.4,0-9.8-4.4-9.8-9.8v-2c0-5.4,4.4-9.8,9.8-9.8h10.8c0.1,0,0.3-0.1,0.3-0.3v-1.6c0-1.7-1-3.3-3.4-3.3H230
			c-0.6,0-1.1-0.5-1.1-1.1v-5h13.9c5.8,0,9.8,3.8,9.8,9.4V61.7z"/>
		<path class="st0" d="M268.6,35.1c-3.2,0-5.7,2.5-5.7,5.7v13.8c0,3.2,2.5,5.7,5.7,5.7h11c1.5,0,2.7-1.1,2.7-2.6l0-17.5
			c-0.2-2.4-1.9-4.3-4.2-4.9l-0.1,0c-0.1,0-0.2-0.1-0.4-0.1c-0.4-0.1-0.7-0.1-1-0.1H268.6z M280.5,40.3l0,17.4
			c0,0.4-0.4,0.8-0.8,0.8h-11c-2.2,0-3.9-1.7-3.9-3.9V40.8c0-2.2,1.7-3.9,3.9-3.9h8.6C279,37.1,280.3,38.6,280.5,40.3z"/>
		<path class="st0" d="M268.5,34c-3.9,0-7,3.1-7,7.1v13.3c0,3.9,3.2,7.1,7.1,7.1h13.7c0.4,0,0.7-0.1,1-0.4c0.3-0.3,0.4-0.6,0.4-1
			l0-15.3h0v-3.7c0,0,0-0.1,0-0.1c0,0,0-0.1,0-0.1l0-22.8h-1.1v19.1l-0.3-0.3C281,35,279,34,276.7,34H268.5z M278.1,35L278.1,35
			c2.5,0.7,4.2,2.7,4.5,5.3l0,0.6l0,0l0,16.9c0,1.6-1.3,2.9-2.9,2.9h-11c-3.4,0-6-2.6-6-6V40.8c0-3.4,2.6-6,6-6h8
			c0.3,0,0.7,0,1.1,0.1C277.8,35,278,35,278.1,35z"/>
		<path class="st0" d="M265.3,54.6c0,1.9,1.5,3.3,3.3,3.3h11c0,0,0.3,0,0.3-0.2V40.3c-0.1-1.5-1.2-2.6-2.7-2.8l-8.6,0
			c-1.9,0-3.3,1.5-3.3,3.3V54.6z M267,40.8c0-1,0.7-1.7,1.7-1.7l8.4,0c0.6,0.1,1.2,0.6,1.2,1.2v16h-9.6c-1,0-1.7-0.7-1.7-1.7V40.8z"
			/>
		<path class="st0" d="M281,13.7c-1.5,0-2.8,1.3-2.8,2.8V30c-0.7-0.2-1.5-0.3-2.3-0.3h-7.4c-6.3,0-11.3,5-11.3,11.4v13.3
			c0,6.3,5.1,11.4,11.4,11.4h15.2c2.3,0,4.1-1.8,4.1-4.1v-48H281z M286.3,61.7c0,1.4-1.1,2.5-2.5,2.5h-15.2c-5.4,0-9.8-4.4-9.8-9.8
			V41.1c0-5.5,4.2-9.8,9.6-9.8h7.4c1.6,0,2.9,0,4,0.6V16.5c0-0.6,0.5-1.1,1.1-1.1h5.3V61.7z"/>
		<path class="st0" d="M280.5,16.5v16.4l-0.2-0.2c-1-0.7-2.2-0.9-4.3-0.9h-7.4c-5.1,0-9.1,4-9.1,9.2v13.3c0,5.1,4.1,9.2,9.2,9.2
			h15.2c1.1,0,1.9-0.8,1.9-1.9V15.9H281C280.7,15.9,280.5,16.2,280.5,16.5z M282.3,17.7h1.7l0,0.1l0,23c0,0,0,0.1,0,0.1
			c0,0,0,0.1,0,0.1v4h0l0,15c0,0.4-0.2,0.8-0.5,1.2c-0.3,0.3-0.7,0.5-1.2,0.5h-13.7c-4.1,0-7.4-3.3-7.4-7.4V41.1
			c0-4.1,3.2-7.4,7.2-7.4h8.2c2.2,0,4.2,0.9,5.5,2.6V17.7z"/>
		<path class="st0" d="M107.4,33.9l-0.3,0.4v-1.9c0-0.3-0.3-0.5-0.6-0.5h-4.7V63c0,0.3,0.3,0.6,0.6,0.6h4.7V39.9
			c0.1-1.7,1.5-3,3.2-3h8c0.3,0,0.6-0.3,0.6-0.6v-4.5h-7.3C109.5,31.9,108,33,107.4,33.9z M112.9,33.7h4.2v1.4H111
			c-3.2,0.3-5.6,3.2-5.6,5.6v21h-1.7v-28h1.7v3.7c0.5-1.1,2-3.1,5.4-3.6c0.3-0.1,0.6-0.1,0.9-0.1C111.9,33.7,112.9,33.7,112.9,33.7z
			"/>
		<path class="st0" d="M105.3,38.2l-0.3,1V34h-1.1v27.5h1.1V40.7c0-2.6,2.5-5.6,5.9-5.9l5.8,0V34h-3.9c0,0-1,0-1.3,0
			c-0.3,0-0.6,0-0.9,0.1C106.4,34.7,105.4,37.8,105.3,38.2z"/>
		<path class="st0" d="M111.6,29.7c-1.1,0-2.2,0.2-3.2,0.7c-0.5-0.4-1.1-0.7-1.8-0.7h-7V63c0,1.5,1.3,2.8,2.8,2.8h7l0-25.7
			c0-0.3,0.3-1,1-1h8c1.5,0,2.8-1.3,2.8-2.8v-6.7H111.6z M119.5,36.4c0,0.6-0.5,1.1-1.1,1.1h-8c-1.4,0-2.5,1.1-2.6,2.5l0,24.2h-5.3
			c-0.6,0-1.1-0.5-1.1-1.1V31.3h5.3c0.6,0,1.1,0.5,1.1,1.1v0.3c0.7-0.6,2-1.4,3.9-1.4h7.8V36.4z"/>
	</g>
</g>
</svg>
