<?xml version="1.0" encoding="utf-8"?>
<!-- Generator: Adobe Illustrator 22.0.1, SVG Export Plug-In . SVG Version: 6.00 Build 0)  -->
<svg version="1.1" id="Layer_1" focusable="false" xmlns="http://www.w3.org/2000/svg" xmlns:xlink="http://www.w3.org/1999/xlink"
	 x="0px" y="0px" viewBox="0 0 576 576" style="enable-background:new 0 0 576 576;" xml:space="preserve">
<style type="text/css">
	.st0{fill:#F4F4F4;}
</style>
<path class="st0" d="M549.7,156.1c-6.3-23.7-24.8-42.3-48.3-48.6C458.8,96,288,96,288,96s-170.8,0-213.4,11.5
	c-23.5,6.3-42,24.9-48.3,48.6C14.9,199,14.9,288.4,14.9,288.4s0,89.4,11.4,132.3c6.3,23.6,24.8,41.5,48.3,47.8
	C117.2,480,288,480,288,480s170.8,0,213.4-11.5c23.5-6.3,42-24.2,48.3-47.8c11.4-42.9,11.4-132.3,11.4-132.3S561.1,199,549.7,156.1z
	 M232.1,369.6V207.2l142.7,81.2L232.1,369.6L232.1,369.6z"/>
</svg>
