<?xml version="1.0" encoding="utf-8"?>
<!-- Generator: Adobe Illustrator 22.0.1, SVG Export Plug-In . SVG Version: 6.00 Build 0)  -->
<svg version="1.1" id="Layer_1" xmlns="http://www.w3.org/2000/svg" xmlns:xlink="http://www.w3.org/1999/xlink" x="0px" y="0px"
	 viewBox="0 0 150 150" style="enable-background:new 0 0 150 150;" xml:space="preserve">
<style type="text/css">
	.st0{fill:none;stroke:#0A4270;stroke-miterlimit:10;}
	.st1{fill:#0A4270;stroke:#0A4270;stroke-miterlimit:10;}
	.st2{fill:none;stroke:#0A4270;stroke-width:1.4883;stroke-miterlimit:10;}
	.st3{fill:none;stroke:#0A4270;stroke-width:0.5117;stroke-miterlimit:10;}
	.st4{fill:none;stroke:#0A4270;stroke-width:0.2558;stroke-miterlimit:10;}
	.st5{fill:#0A4270;stroke:#0A4270;stroke-width:0.5117;stroke-miterlimit:10;}
	.st6{fill:#0A4270;stroke:#0A4270;stroke-width:0.7558;stroke-miterlimit:10;}
	.st7{fill:none;stroke:#0A4270;stroke-width:0.7558;stroke-miterlimit:10;}
</style>
<circle class="st0" cx="20.6" cy="18.6" r="8.3"/>
<circle class="st0" cx="92.5" cy="22.9" r="8.3"/>
<circle class="st1" cx="29" cy="116.4" r="8.3"/>
<circle class="st2" cx="62.6" cy="52" r="12.4"/>
<circle class="st2" cx="123.8" cy="84.5" r="12.4"/>
<circle class="st2" cx="71.1" cy="127.1" r="12.4"/>
<circle class="st3" cx="31" cy="49.9" r="4.3"/>
<circle class="st4" cx="14.1" cy="60.1" r="2.1"/>
<circle class="st4" cx="31" cy="35.4" r="2.1"/>
<circle class="st4" cx="42.5" cy="69.7" r="2.1"/>
<circle class="st3" cx="68.5" cy="74" r="4.3"/>
<circle class="st3" cx="125.2" cy="55.8" r="4.3"/>
<circle class="st3" cx="68.3" cy="98" r="4.3"/>
<circle class="st5" cx="99.1" cy="56.7" r="4.3"/>
<circle class="st6" cx="50.2" cy="24.9" r="6.3"/>
<circle class="st6" cx="125.2" cy="33.2" r="6.3"/>
<circle class="st0" cx="88.5" cy="88.6" r="8.3"/>
<circle class="st1" cx="113.1" cy="117.9" r="8.3"/>
<circle class="st6" cx="50.2" cy="88.6" r="6.3"/>
<circle class="st7" cx="24.7" cy="80.3" r="6.3"/>
</svg>
