<?xml version="1.0" encoding="utf-8"?>
<!-- Generator: Adobe Illustrator 22.0.1, SVG Export Plug-In . SVG Version: 6.00 Build 0)  -->
<svg version="1.1" id="Layer_1" xmlns="http://www.w3.org/2000/svg" xmlns:xlink="http://www.w3.org/1999/xlink" x="0px" y="0px"
	 viewBox="0 0 150 150" style="enable-background:new 0 0 150 150;" xml:space="preserve">
<style type="text/css">
	.st0{fill:none;}
	.st1{fill:#0A4270;}
</style>
<rect y="0" class="st0" width="150" height="150"/>
<g>
	<g>
		<path class="st1" d="M62.3,17.2c-2.5-2.5-6.5-2.5-9,0L50,20.5l3,7.8l-7.9-2.9L28.8,41.7l7.3,12.6l-13.5-6.4l-5.4,5.4
			c-2.5,2.5-2.5,6.5,0,9l29.6,29.6l45.1-45.1L62.3,17.2z"/>
		<path class="st1" d="M130.8,130.9L130.8,130.9c3.1-3.1,4.4-7.1,3.6-11.5c-1.6-8.9-11.2-18.2-25.8-24.9c-4-1.9-6.3-4.5-7-8.1
			c-1.2-6.9,3.8-15.5,8.9-20.7c1.1-1.1,1.1-2.8,0-3.9l-5.4-5.4l-7.9,7.9c-1,1-2.7,1-3.7,0c-1-1-1-2.7,0-3.7l7.9-7.9l-2-2
			c-1.1-1.1-2.8-1.1-3.9,0l-45,45c-1.1,1.1-1.1,2.8,0,3.9l11.1,11.1c1.1,1.1,2.8,1.1,3.9,0c5.2-5.2,13.9-10.2,20.7-8.9
			c3.6,0.6,6.2,2.9,8.1,7c6.7,14.6,16,24.2,24.9,25.8C123.8,135.2,127.7,134,130.8,130.9z M119,125.8c-1.9-1.9-1.9-4.9,0-6.8
			s4.9-1.9,6.8,0s1.9,4.9,0,6.8S120.8,127.7,119,125.8z"/>
	</g>
</g>
</svg>
